<?xml version="1.0" standalone="no"?>
<!DOCTYPE svg PUBLIC "-//W3C//DTD SVG 20010904//EN"
 "http://www.w3.org/TR/2001/REC-SVG-20010904/DTD/svg10.dtd">
<svg version="1.0" xmlns="http://www.w3.org/2000/svg"
 width="1604.000000pt" height="1604.000000pt" viewBox="0 0 1604.000000 1604.000000"
 preserveAspectRatio="xMidYMid meet">
<metadata>
Created by potrace 1.16, written by Peter Selinger 2001-2019
</metadata>
<g transform="translate(0.000000,1604.000000) scale(0.100000,-0.100000)"
fill="#ff1744" stroke="none" >
<path d="M7790 14465 c-206 -30 -426 -101 -621 -201 -124 -63 -319 -188 -319
-204 0 -5 -6 -10 -13 -10 -34 0 -313 -256 -458 -420 -666 -755 -1178 -2044
-1294 -3254 -11 -114 -15 -282 -15 -595 l0 -436 -1113 -1115 c-838 -839 -1126
-1134 -1164 -1190 -67 -100 -135 -236 -166 -336 -58 -183 -58 -174 -60 -1150
l-2 -899 26 -72 c45 -122 96 -202 188 -294 92 -92 169 -141 292 -187 l74 -27
706 -3 707 -3 4 -207 c4 -190 7 -213 30 -279 43 -120 94 -201 187 -294 93 -93
171 -142 292 -186 69 -24 89 -26 281 -31 l206 -4 4 -206 c4 -190 7 -213 30
-279 43 -120 94 -201 187 -294 93 -92 170 -142 292 -186 l74 -27 602 -6 603
-5 35 -73 c87 -183 249 -325 442 -390 112 -37 264 -37 376 0 194 65 354 206
442 390 l35 73 603 5 602 6 74 27 c201 73 348 197 431 361 65 130 80 209 80
417 l0 177 208 4 c192 5 212 7 281 31 125 45 199 93 296 191 72 72 99 109 133
176 67 135 82 212 82 421 l0 178 708 3 707 3 74 27 c123 46 200 95 292 187 95
95 143 172 186 297 l27 79 8 700 c5 385 7 804 5 930 -4 209 -7 239 -30 327
-45 167 -93 273 -190 418 -39 57 -318 343 -1164 1190 l-1113 1115 0 430 c0
237 -5 484 -10 550 -55 644 -237 1363 -505 1996 -77 181 -254 539 -333 674
-206 348 -458 668 -705 893 -111 102 -277 232 -294 232 -6 0 -13 4 -15 9 -5
15 -125 88 -238 146 -198 101 -414 170 -625 200 -120 18 -348 18 -465 0z m575
-432 c335 -82 615 -252 906 -549 378 -389 709 -961 955 -1652 147 -413 265
-922 316 -1357 21 -176 21 -224 25 -2330 3 -1182 2 -2268 -2 -2412 l-7 -263
-499 7 -499 6 0 -206 0 -207 303 0 c167 0 392 -3 500 -7 l197 -6 0 -295 0
-295 -227 6 c-124 4 -538 7 -920 7 l-694 0 1 703 c2 695 1 703 -20 772 -40
127 -86 202 -190 305 -102 103 -172 146 -305 191 -100 34 -261 34 -360 0 -134
-45 -203 -89 -305 -191 -102 -101 -136 -155 -193 -302 l-32 -83 -3 -697 -3
-698 -919 0 -920 0 0 295 0 295 500 0 500 0 0 205 0 205 -497 0 -498 0 2 2232
c3 2297 7 2576 43 2858 122 945 500 1937 994 2605 149 200 372 430 538 553
252 187 448 272 748 326 14 2 129 3 255 1 186 -2 245 -7 310 -22z m-3295
-6315 c0 -535 -3 -1483 -7 -2106 l-6 -1133 -946 3 -946 3 -52 27 c-52 28 -84
63 -119 128 -17 32 -19 66 -22 370 -2 184 2 596 7 915 10 562 15 646 45 720
30 72 59 131 87 172 17 26 217 234 443 461 l411 412 54 0 54 0 -6 -1310 -7
-1310 203 0 204 0 6 392 c4 215 7 920 7 1567 l0 1176 242 242 243 243 52 0 53
0 0 -972z m6259 718 l244 -244 -5 -1566 -6 -1566 203 0 202 0 6 533 c4 292 7
882 7 1310 l0 777 53 0 52 0 411 -412 c226 -227 426 -435 444 -461 81 -121
116 -243 125 -437 3 -69 2 -480 -2 -915 l-8 -790 -30 -55 c-34 -63 -42 -71
-110 -108 l-50 -27 -949 -3 -949 -3 6 1013 c4 557 7 1505 7 2106 l0 1092 53 0
52 0 244 -244z m-3150 -2401 c57 -28 93 -68 115 -127 15 -39 16 -204 14 -1888
l-3 -1845 -24 -45 c-32 -62 -58 -88 -116 -118 -44 -23 -62 -26 -150 -26 -88 0
-106 3 -150 26 -58 30 -84 56 -116 118 l-24 45 -3 1740 c-2 1104 1 1781 7
1852 14 158 48 221 146 271 33 17 59 21 148 22 95 0 113 -3 156 -25z m-1222
-1965 l363 0 0 -300 0 -300 -1082 2 -1083 3 -53 29 c-57 32 -98 79 -118 135
-9 25 -13 100 -14 240 l0 204 812 -6 c446 -4 975 -7 1175 -7z m4111 -208 c-3
-200 -4 -209 -29 -257 -28 -56 -91 -109 -147 -125 -24 -6 -400 -10 -1104 -10
l-1068 0 0 300 0 300 1176 0 1175 0 -3 -208z m-3758 -1087 l0 -296 -572 3
-573 3 -52 27 c-52 28 -85 64 -119 128 -15 29 -19 67 -22 233 l-4 197 671 0
671 0 0 -295z m2748 98 c-3 -166 -7 -204 -22 -233 -34 -64 -67 -100 -119 -128
l-52 -27 -572 -3 -573 -3 0 296 0 295 671 0 671 0 -4 -197z"/>
<path d="M7910 10974 c-109 -17 -207 -40 -265 -64 -11 -4 -46 -18 -79 -31
-273 -105 -551 -392 -662 -684 -61 -162 -78 -248 -78 -415 -1 -97 4 -176 12
-210 66 -270 167 -455 347 -635 186 -187 405 -302 664 -350 442 -81 950 165
1203 584 54 88 111 216 129 285 51 197 61 344 35 493 -15 83 -47 196 -65 230
-5 10 -17 39 -26 65 -40 114 -169 294 -293 409 -177 163 -389 269 -631 314
-75 14 -227 18 -291 9z m403 -441 c125 -44 189 -85 293 -189 78 -77 99 -105
138 -185 65 -135 79 -203 79 -389 -1 -124 -5 -170 -21 -231 -70 -261 -262
-459 -522 -541 -68 -21 -93 -23 -260 -23 -174 1 -190 2 -265 28 -131 44 -220
100 -315 196 -70 70 -94 104 -133 181 -26 52 -54 122 -63 155 -21 80 -30 300
-15 395 47 302 262 540 561 620 65 17 100 20 255 17 171 -3 184 -5 268 -34z"/>
</g>
</svg>
