<svg xmlns="http://www.w3.org/2000/svg" viewBox="0 0 48 48"><path d="M1 21v2h7v-2s1.917-7 3-7c0 1.583-.083 5 1 5 1.917 0 2-2 2-2 0-1.917.167-6-3-6S1 21 1 21zm46 0v2h-7v-2s-1.917-7-3-7c0 1.583.083 5-1 5-1.917 0-2-2-2-2 0-1.917-.167-6 3-6s10 10 10 10z" fill="#37474f"/><path d="M47 21H28c-.91 0-2.09 1-3 1h-2c-.91 0-2.09-1-3-1H1v15a1 1 0 001 1h16.764a2 2 0 001.789-1.106l2.001-5.002c.298-.596.872-.894 1.446-.894s1.148.298 1.446.894l2.001 5.002A2 2 0 0029.236 37H46a1 1 0 001-1V21z" fill="#455a64"/><path d="M17.469 24c.756 0 1.497.092 2.202.273.491.126.826.236 1.256.33.46.1.706.595.518 1.027-1.046 3.755-2.074 7.108-3.092 8.558a1.351 1.351 0 01-1.238.812H6a1 1 0 01-1-1v-8.938C5 24.476 5.476 24 6.062 24h11.407" fill="#40c4ff"/><path d="M6.063 26h11.406c.756 0 1.497.092 2.202.273.491.126.826.236 1.256.33.082.018.148.061.215.101.101-.355.202-.711.303-1.074a.743.743 0 00-.518-1.027c-.43-.094-.765-.204-1.256-.33A8.862 8.862 0 0017.469 24H6.063C5.476 24 5 24.476 5 25.063v2C5 26.476 5.476 26 6.063 26z" fill="#00b0ff"/><path d="M30.531 24h11.406c.587 0 1.063.476 1.063 1.063V34a1 1 0 01-1 1H30.885a1.348 1.348 0 01-1.237-.812c-1.018-1.45-2.047-4.803-3.092-8.558a.743.743 0 01.518-1.027c.43-.094.765-.204 1.256-.33A8.848 8.848 0 0130.531 24" fill="#ff1744"/><path d="M41.938 24H30.531c-.756 0-1.497.092-2.202.273-.491.126-.826.236-1.256.33a.742.742 0 00-.518 1.027c.101.364.202.72.303 1.074.067-.04.133-.083.215-.101.43-.094.765-.204 1.256-.33A8.862 8.862 0 0130.531 26h11.406c.587 0 1.063.476 1.063 1.063v-2c0-.587-.476-1.063-1.062-1.063z" fill="#e53935"/></svg>