<svg version="1.0" xmlns="http://www.w3.org/2000/svg" width="2138.667" height="2138.667" viewBox="0 0 1604 1604"><g transform="matrix(.1 0 0 -.1 0 1604)" fill="#20b2aa">20b2aa<path d="M7790 14465c-206-30-426-101-621-201-124-63-319-188-319-204 0-5-6-10-13-10-34 0-313-256-458-420-666-755-1178-2044-1294-3254-11-114-15-282-15-595v-436L3957 8230c-838-839-1126-1134-1164-1190-67-100-135-236-166-336-58-183-58-174-60-1150l-2-899 26-72c45-122 96-202 188-294s169-141 292-187l74-27 706-3 707-3 4-207c4-190 7-213 30-279 43-120 94-201 187-294s171-142 292-186c69-24 89-26 281-31l206-4 4-206c4-190 7-213 30-279 43-120 94-201 187-294 93-92 170-142 292-186l74-27 602-6 603-5 35-73c87-183 249-325 442-390 112-37 264-37 376 0 194 65 354 206 442 390l35 73 603 5 602 6 74 27c201 73 348 197 431 361 65 130 80 209 80 417v177l208 4c192 5 212 7 281 31 125 45 199 93 296 191 72 72 99 109 133 176 67 135 82 212 82 421v178l708 3 707 3 74 27c123 46 200 95 292 187 95 95 143 172 186 297l27 79 8 700c5 385 7 804 5 930-4 209-7 239-30 327-45 167-93 273-190 418-39 57-318 343-1164 1190l-1113 1115v430c0 237-5 484-10 550-55 644-237 1363-505 1996-77 181-254 539-333 674-206 348-458 668-705 893-111 102-277 232-294 232-6 0-13 4-15 9-5 15-125 88-238 146-198 101-414 170-625 200-120 18-348 18-465 0zm575-432c335-82 615-252 906-549 378-389 709-961 955-1652 147-413 265-922 316-1357 21-176 21-224 25-2330 3-1182 2-2268-2-2412l-7-263-499 7-499 6v-413h303c167 0 392-3 500-7l197-6v-590l-227 6c-124 4-538 7-920 7h-694l1 703c2 695 1 703-20 772-40 127-86 202-190 305-102 103-172 146-305 191-100 34-261 34-360 0-134-45-203-89-305-191-102-101-136-155-193-302l-32-83-3-697-3-698H5470v590h1000v410h-995l2 2232c3 2297 7 2576 43 2858 122 945 500 1937 994 2605 149 200 372 430 538 553 252 187 448 272 748 326 14 2 129 3 255 1 186-2 245-7 310-22zM5070 7718c0-535-3-1483-7-2106l-6-1133-946 3-946 3-52 27c-52 28-84 63-119 128-17 32-19 66-22 370-2 184 2 596 7 915 10 562 15 646 45 720 30 72 59 131 87 172 17 26 217 234 443 461l411 412h108l-6-1310-7-1310h407l6 392c4 215 7 920 7 1567v1176l242 242 243 243h105v-972zm6259 718l244-244-5-1566-6-1566h405l6 533c4 292 7 882 7 1310v777h105l411-412c226-227 426-435 444-461 81-121 116-243 125-437 3-69 2-480-2-915l-8-790-30-55c-34-63-42-71-110-108l-50-27-949-3-949-3 6 1013c4 557 7 1505 7 2106v1092h105l244-244zM8179 6035c57-28 93-68 115-127 15-39 16-204 14-1888l-3-1845-24-45c-32-62-58-88-116-118-44-23-62-26-150-26s-106 3-150 26c-58 30-84 56-116 118l-24 45-3 1740c-2 1104 1 1781 7 1852 14 158 48 221 146 271 33 17 59 21 148 22 95 0 113-3 156-25zM6957 4070h363v-600l-1082 2-1083 3-53 29c-57 32-98 79-118 135-9 25-13 100-14 240v204l812-6c446-4 975-7 1175-7zm4111-208c-3-200-4-209-29-257-28-56-91-109-147-125-24-6-400-10-1104-10H8720v600h2351l-3-208zM7310 2775v-296l-572 3-573 3-52 27c-52 28-85 64-119 128-15 29-19 67-22 233l-4 197h1342v-295zm2748 98c-3-166-7-204-22-233-34-64-67-100-119-128l-52-27-572-3-573-3v591h1342l-4-197z"/><path d="M7910 10974c-109-17-207-40-265-64-11-4-46-18-79-31-273-105-551-392-662-684-61-162-78-248-78-415-1-97 4-176 12-210 66-270 167-455 347-635 186-187 405-302 664-350 442-81 950 165 1203 584 54 88 111 216 129 285 51 197 61 344 35 493-15 83-47 196-65 230-5 10-17 39-26 65-40 114-169 294-293 409-177 163-389 269-631 314-75 14-227 18-291 9zm403-441c125-44 189-85 293-189 78-77 99-105 138-185 65-135 79-203 79-389-1-124-5-170-21-231-70-261-262-459-522-541-68-21-93-23-260-23-174 1-190 2-265 28-131 44-220 100-315 196-70 70-94 104-133 181-26 52-54 122-63 155-21 80-30 300-15 395 47 302 262 540 561 620 65 17 100 20 255 17 171-3 184-5 268-34z"/></g></svg>