<svg version="1.0" xmlns="http://www.w3.org/2000/svg" width="2138.667" height="2138.667" viewBox="0 0 1604 1604"><g fill="#ff1744"><path d="M779 157.5c-20.6 3-42.6 10.1-62.1 20.1-12.4 6.3-31.9 18.8-31.9 20.4 0 .5-.6 1-1.3 1-3.4 0-31.3 25.6-45.8 42-66.6 75.5-117.8 204.4-129.4 325.4-1.1 11.4-1.5 28.2-1.5 59.5v43.6L395.7 781c-83.8 83.9-112.6 113.4-116.4 119-6.7 10-13.5 23.6-16.6 33.6-5.8 18.3-5.8 17.4-6 115l-.2 89.9 2.6 7.2c4.5 12.2 9.6 20.2 18.8 29.4 9.2 9.2 16.9 14.1 29.2 18.7l7.4 2.7 70.6.3 70.7.3.4 20.7c.4 19 .7 21.3 3 27.9 4.3 12 9.4 20.1 18.7 29.4 9.3 9.3 17.1 14.2 29.2 18.6 6.9 2.4 8.9 2.6 28.1 3.1l20.6.4.4 20.6c.4 19 .7 21.3 3 27.9 4.3 12 9.4 20.1 18.7 29.4 9.3 9.2 17 14.2 29.2 18.6l7.4 2.7 60.2.6 60.3.5 3.5 7.3c8.7 18.3 24.9 32.5 44.2 39 11.2 3.7 26.4 3.7 37.6 0 19.4-6.5 35.4-20.6 44.2-39l3.5-7.3 60.3-.5 60.2-.6 7.4-2.7c20.1-7.3 34.8-19.7 43.1-36.1 6.5-13 8-20.9 8-41.7v-17.7l20.8-.4c19.2-.5 21.2-.7 28.1-3.1 12.5-4.5 19.9-9.3 29.6-19.1 7.2-7.2 9.9-10.9 13.3-17.6 6.7-13.5 8.2-21.2 8.2-42.1v-17.8l70.8-.3 70.7-.3 7.4-2.7c12.3-4.6 20-9.5 29.2-18.7 9.5-9.5 14.3-17.2 18.6-29.7l2.7-7.9.8-70c.5-38.5.7-80.4.5-93-.4-20.9-.7-23.9-3-32.7-4.5-16.7-9.3-27.3-19-41.8-3.9-5.7-31.8-34.3-116.4-119L1098 670.5v-43c0-23.7-.5-48.4-1-55-5.5-64.4-23.7-136.3-50.5-199.6-7.7-18.1-25.4-53.9-33.3-67.4-20.6-34.8-45.8-66.8-70.5-89.3C931.6 206 915 193 913.3 193c-.6 0-1.3-.4-1.5-.9-.5-1.5-12.5-8.8-23.8-14.6-19.8-10.1-41.4-17-62.5-20-12-1.8-34.8-1.8-46.5 0zm57.5 43.2c33.5 8.2 61.5 25.2 90.6 54.9 37.8 38.9 70.9 96.1 95.5 165.2 14.7 41.3 26.5 92.2 31.6 135.7 2.1 17.6 2.1 22.4 2.5 233 .3 118.2.2 226.8-.2 241.2l-.7 26.3-49.9-.7-49.9-.6v41.3h30.3c16.7 0 39.2.3 50 .7l19.7.6v59l-22.7-.6c-12.4-.4-53.8-.7-92-.7h-69.4l.1-70.3c.2-69.5.1-70.3-2-77.2-4-12.7-8.6-20.2-19-30.5-10.2-10.3-17.2-14.6-30.5-19.1-10-3.4-26.1-3.4-36 0-13.4 4.5-20.3 8.9-30.5 19.1-10.2 10.1-13.6 15.5-19.3 30.2l-3.2 8.3-.3 69.7-.3 69.8H547v-59h100v-41h-99.5l.2-223.2c.3-229.7.7-257.6 4.3-285.8 12.2-94.5 50-193.7 99.4-260.5 14.9-20 37.2-43 53.8-55.3 25.2-18.7 44.8-27.2 74.8-32.6 1.4-.2 12.9-.3 25.5-.1 18.6.2 24.5.7 31 2.2zM507 832.2c0 53.5-.3 148.3-.7 210.6l-.6 113.3-94.6-.3-94.6-.3-5.2-2.7c-5.2-2.8-8.4-6.3-11.9-12.8-1.7-3.2-1.9-6.6-2.2-37-.2-18.4.2-59.6.7-91.5 1-56.2 1.5-64.6 4.5-72 3-7.2 5.9-13.1 8.7-17.2 1.7-2.6 21.7-23.4 44.3-46.1l41.1-41.2h10.8l-.6 131-.7 131h40.7l.6-39.2c.4-21.5.7-92 .7-156.7V783.5l24.2-24.2 24.3-24.3H507v97.2zm625.9-71.8l24.4 24.4-.5 156.6-.6 156.6h40.5l.6-53.3c.4-29.2.7-88.2.7-131V836h10.5l41.1 41.2c22.6 22.7 42.6 43.5 44.4 46.1 8.1 12.1 11.6 24.3 12.5 43.7.3 6.9.2 48-.2 91.5l-.8 79-3 5.5c-3.4 6.3-4.2 7.1-11 10.8l-5 2.7-94.9.3-94.9.3.6-101.3c.4-55.7.7-150.5.7-210.6V736h10.5l24.4 24.4zm-315 240.1c5.7 2.8 9.3 6.8 11.5 12.7 1.5 3.9 1.6 20.4 1.4 188.8l-.3 184.5-2.4 4.5c-3.2 6.2-5.8 8.8-11.6 11.8-4.4 2.3-6.2 2.6-15 2.6s-10.6-.3-15-2.6c-5.8-3-8.4-5.6-11.6-11.8l-2.4-4.5-.3-174c-.2-110.4.1-178.1.7-185.2 1.4-15.8 4.8-22.1 14.6-27.1 3.3-1.7 5.9-2.1 14.8-2.2 9.5 0 11.3.3 15.6 2.5zM695.7 1197H732v60l-108.2-.2-108.3-.3-5.3-2.9c-5.7-3.2-9.8-7.9-11.8-13.5-.9-2.5-1.3-10-1.4-24v-20.4l81.2.6c44.6.4 97.5.7 117.5.7zm411.1 20.8c-.3 20-.4 20.9-2.9 25.7-2.8 5.6-9.1 10.9-14.7 12.5-2.4.6-40 1-110.4 1H872v-60h235.1l-.3 20.8zM731 1326.5v29.6l-57.2-.3-57.3-.3-5.2-2.7c-5.2-2.8-8.5-6.4-11.9-12.8-1.5-2.9-1.9-6.7-2.2-23.3l-.4-19.7H731v29.5zm274.8-9.8c-.3 16.6-.7 20.4-2.2 23.3-3.4 6.4-6.7 10-11.9 12.8l-5.2 2.7-57.2.3-57.3.3V1297h134.2l-.4 19.7z"/><path d="M791 506.6c-10.9 1.7-20.7 4-26.5 6.4-1.1.4-4.6 1.8-7.9 3.1-27.3 10.5-55.1 39.2-66.2 68.4-6.1 16.2-7.8 24.8-7.8 41.5-.1 9.7.4 17.6 1.2 21 6.6 27 16.7 45.5 34.7 63.5 18.6 18.7 40.5 30.2 66.4 35 44.2 8.1 95-16.5 120.3-58.4 5.4-8.8 11.1-21.6 12.9-28.5 5.1-19.7 6.1-34.4 3.5-49.3-1.5-8.3-4.7-19.6-6.5-23-.5-1-1.7-3.9-2.6-6.5-4-11.4-16.9-29.4-29.3-40.9-17.7-16.3-38.9-26.9-63.1-31.4-7.5-1.4-22.7-1.8-29.1-.9zm40.3 44.1c12.5 4.4 18.9 8.5 29.3 18.9 7.8 7.7 9.9 10.5 13.8 18.5 6.5 13.5 7.9 20.3 7.9 38.9-.1 12.4-.5 17-2.1 23.1-7 26.1-26.2 45.9-52.2 54.1-6.8 2.1-9.3 2.3-26 2.3-17.4-.1-19-.2-26.5-2.8-13.1-4.4-22-10-31.5-19.6-7-7-9.4-10.4-13.3-18.1-2.6-5.2-5.4-12.2-6.3-15.5-2.1-8-3-30-1.5-39.5 4.7-30.2 26.2-54 56.1-62 6.5-1.7 10-2 25.5-1.7 17.1.3 18.4.5 26.8 3.4z"/></g></svg>